<?xml version="1.0" encoding="UTF-8" standalone="no"?>
<!-- Created with Inkscape (http://www.inkscape.org/) -->

<svg
   xmlns:dc="http://purl.org/dc/elements/1.1/"
   xmlns:cc="http://creativecommons.org/ns#"
   xmlns:rdf="http://www.w3.org/1999/02/22-rdf-syntax-ns#"
   xmlns:svg="http://www.w3.org/2000/svg"
   xmlns="http://www.w3.org/2000/svg"
   xmlns:sodipodi="http://sodipodi.sourceforge.net/DTD/sodipodi-0.dtd"
   xmlns:inkscape="http://www.inkscape.org/namespaces/inkscape"
   width="210mm"
   height="297mm"
   viewBox="0 0 210 297"
   version="1.1"
   id="svg276"
   inkscape:version="0.92.5 (2060ec1f9f, 2020-04-08)"
   sodipodi:docname="map2.svg">
  <defs
     id="defs270" />
  <sodipodi:namedview
     id="base"
     pagecolor="#ffffff"
     bordercolor="#666666"
     borderopacity="1.0"
     inkscape:pageopacity="0.0"
     inkscape:pageshadow="2"
     inkscape:zoom="0.24748738"
     inkscape:cx="-2016.8226"
     inkscape:cy="1131.4006"
     inkscape:document-units="mm"
     inkscape:current-layer="layer1"
     showgrid="false"
     inkscape:window-width="1542"
     inkscape:window-height="836"
     inkscape:window-x="58"
     inkscape:window-y="27"
     inkscape:window-maximized="1" />
  <metadata
     id="metadata273">
    <rdf:RDF>
      <cc:Work
         rdf:about="">
        <dc:format>image/svg+xml</dc:format>
        <dc:type
           rdf:resource="http://purl.org/dc/dcmitype/StillImage" />
        <dc:title />
      </cc:Work>
    </rdf:RDF>
  </metadata>
  <g
     inkscape:label="Layer 1"
     inkscape:groupmode="layer"
     id="layer1">
    <g
       id="g21">
      <g
         inkscape:export-ydpi="96"
         inkscape:export-xdpi="96"
         inkscape:export-filename="/home/samuko/Desktop/mech_map2_a.png"
         id="g383">
        <rect
           style="fill:#ffffff;stroke:#000000;stroke-width:0;stroke-miterlimit:4;stroke-dasharray:none;stroke-opacity:1"
           id="rect378"
           width="495.56458"
           height="942.44586"
           x="-512.59406"
           y="-350.73779"
           inkscape:transform-center-x="605.3925"
           inkscape:transform-center-y="290.28922" />
        <path
           id="rect10"
           transform="scale(0.26458333)"
           d="M -1857.3652 -1325.623 L -1857.3652 -1295.623 L -1857.3652 -1095.623 L -1857.3652 -540.62305 L -1827.3672 -540.62305 L -1827.3672 -570.62305 L -1827.3672 -1065.623 L -1827.3652 -1065.623 L -1827.3652 -1295.623 L -1676.3652 -1295.623 L -1676.3652 -1065.623 L -1315.3633 -1065.623 L -1315.3633 -358.62305 L -1285.3633 -358.62305 L -458.36328 -358.62305 L -458.36328 1386.377 L -428.36328 1386.377 L -94.363281 1386.377 L -94.363281 2076.377 L -94.363281 2206.377 L -266.36328 2206.377 L -266.36328 2076.377 L -603.36328 2076.377 L -603.36328 1356.377 L -1466.3633 1356.377 L -1466.3633 -388.62305 L -1827.3672 -388.62305 L -1857.3652 -388.62305 L -1857.3652 -358.62305 L -1827.3672 -358.62305 L -1496.3652 -358.62305 L -1496.3652 1356.377 L -1496.3652 1386.377 L -633.36328 1386.377 L -633.36328 2076.377 L -633.36328 2106.377 L -296.36328 2106.377 L -296.36328 2206.377 L -296.36328 2236.377 L -64.363281 2236.377 L -64.363281 2206.377 L -64.363281 2076.377 L -64.363281 1356.377 L -428.36328 1356.377 L -428.36328 -388.62305 L -1285.3633 -388.62305 L -1285.3633 -1065.623 L -1285.3633 -1095.623 L -1315.3633 -1095.623 L -1646.3652 -1095.623 L -1646.3652 -1295.623 L -1646.3652 -1325.623 L -1676.3652 -1325.623 L -1827.3652 -1325.623 L -1857.3652 -1325.623 z "
           style="fill:#000000;stroke:#000000;stroke-width:0;stroke-miterlimit:4;stroke-dasharray:none;stroke-opacity:1" />
        <path
           inkscape:connector-curvature="0"
           style="fill:#000000;stroke:#000000;stroke-width:0;stroke-miterlimit:4;stroke-dasharray:none;stroke-opacity:1"
           d="m -349.61074,-53.87529 v 7.9375 358.51041 7.9375 h 182.03361 7.9375 v -7.9375 -358.51041 -7.9375 h -7.9375 -174.09606 z m 7.93755,7.9375 h 174.09606 v 358.51041 h -174.09606 z"
           id="rect10-3-3-2" />
      </g>
      <rect
         y="-201.79347"
         x="-491.42786"
         height="106.9078"
         width="7.9374995"
         id="rect14"
         style="fill:#000000;stroke:#000000;stroke-width:0;stroke-miterlimit:4;stroke-dasharray:none;stroke-opacity:1" />
    </g>
  </g>
</svg>
